<?xml version="1.0" encoding="UTF-8"?>
<svg width="213px" height="25px" viewBox="0 0 213 25" version="1.1" xmlns="http://www.w3.org/2000/svg" xmlns:xlink="http://www.w3.org/1999/xlink">
    <title>77D06B71-1CA6-4C8B-9934-CD2167CA02DE</title>
    <g id="Logo" stroke="none" stroke-width="1" fill="none" fill-rule="evenodd">
        <g id="LOGO" transform="translate(-120.000000, -242.000000)" fill-rule="nonzero">
            <g id="logo/25px/US" transform="translate(120.000000, 242.000000)">
                <path d="M7.2300245,19.497012 L7.2300245,18.5258964 C6.71655197,18.4926959 6.37699755,18.4179947 6.21136125,18.3017928 C6.04572495,18.185591 5.9629068,17.936587 5.9629068,17.5547809 L5.9629068,17.5547809 L5.9629068,9.08864542 C6.69170652,8.70683931 7.35425172,8.51593625 7.9505424,8.51593625 C8.48057856,8.51593625 8.85740114,8.65703851 9.08101015,8.93924303 C9.30461915,9.22144754 9.41642366,9.64475432 9.41642366,10.2091633 L9.41642366,10.2091633 L9.41642366,17.5547809 C9.41642366,17.936587 9.33774641,18.185591 9.18039193,18.3017928 C9.02303744,18.4179947 8.68762394,18.4926959 8.17415141,18.5258964 L8.17415141,18.5258964 L8.17415141,19.497012 L15.2551032,19.497012 L15.2551032,18.5258964 C14.7416307,18.4926959 14.4062172,18.4179947 14.2488627,18.3017928 C14.0915082,18.185591 14.012831,17.936587 14.012831,17.5547809 L14.012831,17.5547809 L14.012831,9.08864542 C14.8078852,8.70683931 15.4621486,8.51593625 15.9756211,8.51593625 C16.5222209,8.51593625 16.9073253,8.65703851 17.1309343,8.93924303 C17.3545433,9.22144754 17.4663478,9.64475432 17.4663478,10.2091633 L17.4663478,10.2091633 L17.4663478,17.5547809 C17.4663478,17.936587 17.3876706,18.185591 17.2303161,18.3017928 C17.0729616,18.4179947 16.7375481,18.4926959 16.2240756,18.5258964 L16.2240756,18.5258964 L16.2240756,19.497012 L23.4292546,19.497012 L23.4292546,18.5258964 C22.8992185,18.4926959 22.5389595,18.4179947 22.3484778,18.3017928 C22.157996,18.185591 22.0627552,17.936587 22.0627552,17.5547809 L22.0627552,17.5547809 L22.0627552,9.78585657 C22.0627552,8.49103586 21.7521871,7.50747012 21.131051,6.83515936 C20.5099148,6.16284861 19.6196197,5.82669323 18.4601656,5.82669323 C16.5719118,5.82669323 15.0563397,6.68990704 13.9134492,8.41633466 C13.5821766,6.68990704 12.4310043,5.82669323 10.4599323,5.82669323 C8.62136942,5.82669323 7.1223609,6.67330677 5.9629068,8.36653386 L5.9629068,8.36653386 L6.06228858,5.82669323 L5.21754345,5.82669323 L0.024845445,7.27091633 L0.024845445,7.96812749 L1.39134492,8.81474104 L1.39134492,17.5547809 C1.39134492,17.936587 1.29610405,18.185591 1.1056223,18.3017928 C0.915140558,18.4179947 0.54659979,18.4926959 0,18.5258964 L0,18.5258964 L0,19.497012 L7.2300245,19.497012 Z M27.3051441,25 C28.1333256,25 28.8165753,24.7343958 29.3548933,24.2031873 C29.8932112,23.6719788 30.4025429,22.8253652 30.8828881,21.6633466 L30.8828881,21.6633466 L36.5476496,8.04282869 C36.663595,7.76062417 36.800245,7.55727092 36.9575994,7.43276892 C37.1149539,7.30826693 37.4006765,7.17961487 37.8147673,7.04681275 L37.8147673,7.04681275 L37.8147673,6.07569721 L33.2928963,6.07569721 L33.2928963,7.04681275 C33.9554415,7.12981408 34.3943777,7.22941567 34.6097049,7.34561753 C34.8250321,7.46181939 34.9326957,7.65272244 34.9326957,7.91832669 C34.9326957,8.05112882 34.8664412,8.29183267 34.7339321,8.64043825 L34.7339321,8.64043825 L32.2742331,14.9651394 L29.6654613,8.61553785 C29.5495159,8.26693227 29.4915432,8.03452855 29.4915432,7.91832669 C29.4915432,7.65272244 29.5992068,7.46181939 29.814534,7.34561753 C30.0298612,7.22941567 30.4687974,7.12981408 31.1313426,7.04681275 L31.1313426,7.04681275 L31.1313426,6.07569721 L23.1808002,6.07569721 L23.1808002,7.04681275 C23.5948909,7.17961487 23.8764726,7.30826693 24.0255453,7.43276892 C24.174618,7.55727092 24.3154088,7.76062417 24.4479179,8.04282869 L24.4479179,8.04282869 L30.1126793,20.1195219 L29.7151522,20.9910359 C29.499825,21.5056441 29.1933979,21.875 28.7958708,22.0991036 C28.3983436,22.3232072 27.8517438,22.435259 27.1560714,22.435259 C26.725417,22.435259 26.0794354,22.3522576 25.2181267,22.186255 L25.2181267,22.186255 L25.2181267,23.9541833 C25.5990902,24.6513944 26.2947626,25 27.3051441,25 Z" id="my" fill="#002D6B"></path>
                <path d="M46.1876823,24.7758964 L46.1876823,23.8047809 C45.392628,23.7383798 44.8750146,23.6470784 44.6348419,23.5308765 C44.3946693,23.4146746 44.274583,23.1490704 44.274583,22.7340637 L44.274583,22.7340637 L44.274583,19.2231076 C44.6886737,19.5717131 45.4091916,19.7460159 46.4361367,19.7460159 C48.4900268,19.7460159 50.1753762,19.065405 51.4921848,17.7041833 C52.8089934,16.3429615 53.4673976,14.4256308 53.4673976,11.9521912 C53.4673976,9.97675963 53.0118978,8.46198539 52.1008982,7.40786853 C51.1898985,6.35375166 49.9724717,5.82669323 48.4486178,5.82669323 C47.4879272,5.82669323 46.6556048,6.06324701 45.9516505,6.53635458 C45.2476963,7.00946215 44.6886737,7.57802125 44.274583,8.24203187 L44.274583,8.24203187 L44.3739648,5.82669323 L43.5043742,5.82669323 L38.3116762,7.27091633 L38.3116762,7.96812749 L39.6781757,8.81474104 L39.6781757,22.8336653 C39.6781757,23.2154714 39.5829348,23.4644754 39.3924531,23.5806773 C39.2019713,23.6968792 38.8334305,23.7715803 38.2868307,23.8047809 L38.2868307,23.8047809 L38.2868307,24.7758964 L46.1876823,24.7758964 Z M46.0386096,18.5756972 C44.8625919,18.5756972 44.274583,17.7041833 44.274583,15.9611554 L44.274583,15.9611554 L44.274583,8.96414343 C44.6886737,8.68193891 45.1773008,8.54083665 45.7404642,8.54083665 C46.7177184,8.54083665 47.4713636,8.93924303 48.0013997,9.73605578 C48.5314359,10.5328685 48.796454,11.7363878 48.796454,13.3466135 C48.796454,14.873838 48.5521404,16.127158 48.0635134,17.1065737 C47.5748863,18.0859894 46.8999183,18.5756972 46.0386096,18.5756972 Z M61.2191765,19.7460159 C62.7430304,19.7460159 63.9894436,19.3393094 64.958416,18.5258964 C65.9273883,17.7124834 66.5857926,16.6002656 66.9336288,15.189243 L66.9336288,15.189243 L66.4615654,14.8904382 C65.5505657,16.1022576 64.3165753,16.7081673 62.7595941,16.7081673 C61.6167036,16.7081673 60.6849994,16.2724104 59.9644815,15.4008964 C59.2439636,14.5293825 58.8919865,13.3632138 58.9085501,11.9023904 L58.9085501,11.9023904 L66.8342471,11.9023904 L66.8342471,11.2798805 C66.8342471,9.63645418 66.3663245,8.31673307 65.4304794,7.32071713 C64.4946343,6.3247012 63.1488394,5.82669323 61.3930946,5.82669323 C59.5545317,5.82669323 57.9892686,6.49900398 56.6973055,7.8436255 C55.4053424,9.18824701 54.7593608,10.939575 54.7593608,13.0976096 C54.7593608,15.1394422 55.3639333,16.7579681 56.5730783,17.9531873 C57.7822233,19.1484064 59.3309227,19.7460159 61.2191765,19.7460159 Z M62.9086667,10.7569721 L58.9333955,10.7569721 C59.0659046,8.16733068 59.7864225,6.87250996 61.0949493,6.87250996 C62.3040942,6.87250996 62.9086667,8.16733068 62.9086667,10.7569721 L62.9086667,10.7569721 Z M75.8034527,19.497012 L75.8034527,18.5258964 C75.0083985,18.4262948 74.4783623,18.3017928 74.2133442,18.1523904 C73.9483261,18.002988 73.8158171,17.6792829 73.8158171,17.1812749 L73.8158171,17.1812749 L73.8158171,10.6075697 C74.3292896,10.2257636 74.9007349,9.98090969 75.5301528,9.87300797 C76.1595707,9.76510624 76.954625,9.71115538 77.9153155,9.71115538 L77.9153155,9.71115538 L78.5116062,9.71115538 L78.5116062,6.25 C78.2300245,5.96779548 77.8159337,5.82669323 77.269334,5.82669323 C76.4742797,5.82669323 75.8282981,6.10474768 75.3313892,6.66085657 C74.8344803,7.21696547 74.3292896,8.21713147 73.8158171,9.66135458 L73.8158171,9.66135458 L73.9151989,5.82669323 L73.0704538,5.82669323 L67.8777557,7.27091633 L67.8777557,7.96812749 L69.2442552,8.81474104 L69.2442552,17.5547809 C69.2442552,17.936587 69.1490143,18.185591 68.9585326,18.3017928 C68.7680509,18.4179947 68.3995101,18.4926959 67.8529103,18.5258964 L67.8529103,18.5258964 L67.8529103,19.497012 L75.8034527,19.497012 Z M87.1826665,19.497012 L87.1826665,18.5258964 C86.3876123,18.4262948 85.8575761,18.3017928 85.592558,18.1523904 C85.32754,18.002988 85.1950309,17.6792829 85.1950309,17.1812749 L85.1950309,17.1812749 L85.1950309,7.42031873 L88.101948,7.42031873 L88.101948,6.07569721 L85.1950309,6.07569721 L85.1950309,2.83864542 C85.1950309,1.67662683 85.551149,1.09561753 86.263385,1.09561753 C86.8596757,1.09561753 87.1578211,1.66832669 87.1578211,2.81374502 C87.1578211,3.21215139 87.116412,3.60225764 87.0335938,3.98406375 L87.0335938,3.98406375 L89.3690657,3.98406375 C89.98192,3.6686587 90.2883471,3.14575033 90.2883471,2.41533865 C90.2883471,0.805112882 89.0046658,0 86.4373032,0 C84.7146856,0 83.3150589,0.460657371 82.238423,1.38197211 C81.161787,2.30328685 80.623469,3.6686587 80.623469,5.47808765 L80.623469,5.47808765 L80.623469,5.95119522 L78.834597,6.42430279 L78.834597,7.42031873 L80.623469,7.42031873 L80.623469,17.5547809 C80.623469,17.936587 80.5282282,18.185591 80.3377464,18.3017928 C80.1472647,18.4179947 79.7787239,18.4926959 79.2321241,18.5258964 L79.2321241,18.5258964 L79.2321241,19.497012 L87.1826665,19.497012 Z M95.0089817,19.7460159 C96.5328356,19.7460159 97.7792488,19.3393094 98.7482212,18.5258964 C99.7171935,17.7124834 100.375598,16.6002656 100.723434,15.189243 L100.723434,15.189243 L100.251371,14.8904382 C99.3403709,16.1022576 98.1063805,16.7081673 96.5493993,16.7081673 C95.4065088,16.7081673 94.4748046,16.2724104 93.7542867,15.4008964 C93.0337688,14.5293825 92.6817917,13.3632138 92.6983553,11.9023904 L92.6983553,11.9023904 L100.624052,11.9023904 L100.624052,11.2798805 C100.624052,9.63645418 100.15613,8.31673307 99.2202846,7.32071713 C98.2844395,6.3247012 96.9386446,5.82669323 95.1828998,5.82669323 C93.3443369,5.82669323 91.7790738,6.49900398 90.4871107,7.8436255 C89.1951476,9.18824701 88.549166,10.939575 88.549166,13.0976096 C88.549166,15.1394422 89.1537385,16.7579681 90.3628835,17.9531873 C91.5720285,19.1484064 93.1207279,19.7460159 95.0089817,19.7460159 Z M96.6984719,10.7569721 L92.7232007,10.7569721 C92.8557098,8.16733068 93.5762277,6.87250996 94.8847545,6.87250996 C96.0938995,6.87250996 96.6984719,8.16733068 96.6984719,10.7569721 L96.6984719,10.7569721 Z M107.978304,19.7460159 C110.92663,19.7460159 112.79832,18.2768924 113.593375,15.3386454 L113.593375,15.3386454 L113.046775,14.9900398 C112.284848,16.0856574 111.183366,16.6334661 109.742331,16.6334661 C108.516622,16.6334661 107.560072,16.1769588 106.872682,15.2639442 C106.185291,14.3509296 105.841596,13.0893094 105.841596,11.4790837 C105.841596,10.1676627 106.061064,9.08449535 106.5,8.22958167 C106.938936,7.37466799 107.531086,6.94721116 108.276449,6.94721116 C109.336522,6.94721116 109.866558,7.76062417 109.866558,9.3874502 C109.866558,9.85225764 109.833431,10.3253652 109.767176,10.8067729 L109.767176,10.8067729 L112.127493,10.8067729 C112.856293,10.4747676 113.220693,9.8688579 113.220693,8.98904382 C113.220693,7.94322709 112.79832,7.15471448 111.953575,6.62350598 C111.10883,6.09229748 110.01563,5.82669323 108.673976,5.82669323 C106.63665,5.82669323 104.99271,6.51975432 103.742156,7.90587649 C102.491602,9.29199867 101.866325,11.0557769 101.866325,13.1972112 C101.866325,15.189243 102.441911,16.7787185 103.593083,17.9656375 C104.744255,19.1525564 106.205996,19.7460159 107.978304,19.7460159 Z M119.258136,19.7460159 C121.14639,19.7460159 122.587426,18.9326029 123.581243,17.3057769 L123.581243,17.3057769 L123.208562,16.7579681 C122.579144,17.1729748 121.982853,17.3804781 121.41969,17.3804781 C120.475563,17.3804781 120.003499,16.8077689 120.003499,15.6623506 L120.003499,15.6623506 L120.003499,7.42031873 L122.910416,7.42031873 L122.910416,6.07569721 L120.003499,6.07569721 L120.003499,2.68924303 L119.034527,2.68924303 C117.626618,4.54847278 115.937128,5.85159363 113.966056,6.59860558 L113.966056,6.59860558 L113.966056,7.42031873 L115.382247,7.42031873 L115.382247,15.6623506 C115.382247,17.0733732 115.725942,18.1067397 116.413333,18.7624502 C117.100723,19.4181607 118.048991,19.7460159 119.258136,19.7460159 Z" id="perfect" fill="#FF3D3C"></path>
                <path d="M132.078386,19.497012 L132.078386,18.5258964 C131.283331,18.4262948 130.753295,18.3017928 130.488277,18.1523904 C130.223259,18.002988 130.09075,17.6792829 130.09075,17.1812749 L130.09075,17.1812749 L130.09075,10.6075697 C130.604223,10.2257636 131.175668,9.98090969 131.805086,9.87300797 C132.434504,9.76510624 133.229558,9.71115538 134.190248,9.71115538 L134.190248,9.71115538 L134.786539,9.71115538 L134.786539,6.25 C134.504957,5.96779548 134.090867,5.82669323 133.544267,5.82669323 C132.749213,5.82669323 132.103231,6.10474768 131.606322,6.66085657 C131.109413,7.21696547 130.604223,8.21713147 130.09075,9.66135458 L130.09075,9.66135458 L130.190132,5.82669323 L129.345387,5.82669323 L124.152689,7.27091633 L124.152689,7.96812749 L125.519188,8.81474104 L125.519188,17.5547809 C125.519188,17.936587 125.423947,18.185591 125.233466,18.3017928 C125.042984,18.4179947 124.674443,18.4926959 124.127843,18.5258964 L124.127843,18.5258964 L124.127843,19.497012 L132.078386,19.497012 Z M141.867491,19.7460159 C143.391345,19.7460159 144.637758,19.3393094 145.60673,18.5258964 C146.575703,17.7124834 147.234107,16.6002656 147.581943,15.189243 L147.581943,15.189243 L147.10988,14.8904382 C146.19888,16.1022576 144.96489,16.7081673 143.407909,16.7081673 C142.265018,16.7081673 141.333314,16.2724104 140.612796,15.4008964 C139.892278,14.5293825 139.540301,13.3632138 139.556865,11.9023904 L139.556865,11.9023904 L147.482562,11.9023904 L147.482562,11.2798805 C147.482562,9.63645418 147.014639,8.31673307 146.078794,7.32071713 C145.142949,6.3247012 143.797154,5.82669323 142.041409,5.82669323 C140.202846,5.82669323 138.637583,6.49900398 137.34562,7.8436255 C136.053657,9.18824701 135.407675,10.939575 135.407675,13.0976096 C135.407675,15.1394422 136.012248,16.7579681 137.221393,17.9531873 C138.430538,19.1484064 139.979237,19.7460159 141.867491,19.7460159 Z M143.556981,10.7569721 L139.58171,10.7569721 C139.714219,8.16733068 140.434737,6.87250996 141.743264,6.87250996 C142.952409,6.87250996 143.556981,8.16733068 143.556981,10.7569721 L143.556981,10.7569721 Z M153.81815,19.7460159 C155.524204,19.7460159 156.869999,19.3476096 157.855535,18.5507968 C158.841071,17.7539841 159.333839,16.6334661 159.333839,15.189243 C159.333839,13.9110226 158.97358,12.939907 158.253062,12.2758964 C157.532544,11.6118858 156.360667,11.0059761 154.737431,10.4581673 C153.859559,10.1427623 153.242564,9.84810757 152.886446,9.57420319 C152.530328,9.3002988 152.352269,8.91434263 152.352269,8.41633466 C152.352269,7.95152722 152.517905,7.57802125 152.849178,7.29581673 C153.18045,7.01361222 153.611105,6.87250996 154.141141,6.87250996 C154.969322,6.87250996 155.656713,7.16716467 156.203313,7.7564741 C156.749913,8.34578353 157.106031,9.08034529 157.271667,9.96015936 L157.271667,9.96015936 L158.340021,9.96015936 L158.340021,6.97211155 C157.164003,6.20849934 155.739531,5.82669323 154.066604,5.82669323 C152.54275,5.82669323 151.30876,6.2126494 150.364633,6.98456175 C149.420506,7.7564741 148.948443,8.82304117 148.948443,10.1842629 C148.948443,11.3960823 149.296279,12.3464475 149.991951,13.0353586 C150.687624,13.7242696 151.780824,14.3011288 153.27155,14.7659363 C154.232241,15.0813413 154.91549,15.3884462 155.321299,15.687251 C155.727108,15.9860558 155.930013,16.4259628 155.930013,17.0069721 C155.930013,17.5381806 155.731249,17.9531873 155.333722,18.251992 C154.936195,18.5507968 154.431004,18.7001992 153.81815,18.7001992 C152.890587,18.7001992 152.103814,18.3681939 151.457833,17.7041833 C150.811851,17.0401726 150.356351,16.1769588 150.091333,15.1145418 L150.091333,15.1145418 L148.948443,15.1145418 L149.097515,18.4760956 C150.273533,19.3227092 151.847078,19.7460159 153.81815,19.7460159 Z M170.539134,19.7460159 L175.781523,18.874502 L175.781523,17.9033865 L175.185233,17.8784861 C174.820833,17.8618858 174.588942,17.7664343 174.48956,17.5921315 C174.390178,17.4178287 174.340488,17.0982736 174.340488,16.6334661 L174.340488,16.6334661 L174.340488,9.01394422 L174.464715,5.85159363 L173.644815,5.85159363 L168.427272,6.99701195 L168.427272,7.89342629 L168.799953,8.01792829 C169.429371,8.18393094 169.74408,8.66533865 169.74408,9.46215139 L169.74408,9.46215139 L169.74408,16.6085657 C168.998717,16.940571 168.361017,17.1065737 167.830981,17.1065737 C166.704654,17.1065737 166.141491,16.4425631 166.141491,15.1145418 L166.141491,15.1145418 L166.141491,9.01394422 L166.290563,5.85159363 L165.470664,5.85159363 L160.228275,6.99701195 L160.228275,7.89342629 L160.600956,8.01792829 C161.246938,8.18393094 161.569929,8.66533865 161.569929,9.46215139 L161.569929,9.46215139 L161.569929,15.562749 C161.569929,16.940571 161.909483,17.9822377 162.588592,18.687749 C163.267701,19.3932603 164.178701,19.7460159 165.321591,19.7460159 C167.011081,19.7460159 168.485244,18.9409031 169.74408,17.3306773 L169.74408,17.3306773 L169.669544,19.7460159 L170.539134,19.7460159 Z M183.881138,19.497012 L183.881138,18.5258964 C183.367666,18.4926959 183.028112,18.4179947 182.862475,18.3017928 C182.696839,18.185591 182.614021,17.936587 182.614021,17.5547809 L182.614021,17.5547809 L182.614021,9.08864542 C183.34282,8.70683931 184.005366,8.51593625 184.601656,8.51593625 C185.131693,8.51593625 185.508515,8.65703851 185.732124,8.93924303 C185.955733,9.22144754 186.067538,9.64475432 186.067538,10.2091633 L186.067538,10.2091633 L186.067538,17.5547809 C186.067538,17.936587 185.98886,18.185591 185.831506,18.3017928 C185.674151,18.4179947 185.338738,18.4926959 184.825265,18.5258964 L184.825265,18.5258964 L184.825265,19.497012 L191.906217,19.497012 L191.906217,18.5258964 C191.392745,18.4926959 191.057331,18.4179947 190.899977,18.3017928 C190.742622,18.185591 190.663945,17.936587 190.663945,17.5547809 L190.663945,17.5547809 L190.663945,9.08864542 C191.458999,8.70683931 192.113263,8.51593625 192.626735,8.51593625 C193.173335,8.51593625 193.558439,8.65703851 193.782048,8.93924303 C194.005657,9.22144754 194.117462,9.64475432 194.117462,10.2091633 L194.117462,10.2091633 L194.117462,17.5547809 C194.117462,17.936587 194.038785,18.185591 193.88143,18.3017928 C193.724076,18.4179947 193.388662,18.4926959 192.87519,18.5258964 L192.87519,18.5258964 L192.87519,19.497012 L200.080369,19.497012 L200.080369,18.5258964 C199.550332,18.4926959 199.190073,18.4179947 198.999592,18.3017928 C198.80911,18.185591 198.713869,17.936587 198.713869,17.5547809 L198.713869,17.5547809 L198.713869,9.78585657 C198.713869,8.49103586 198.403301,7.50747012 197.782165,6.83515936 C197.161029,6.16284861 196.270734,5.82669323 195.11128,5.82669323 C193.223026,5.82669323 191.707454,6.68990704 190.564563,8.41633466 C190.233291,6.68990704 189.082118,5.82669323 187.111046,5.82669323 C185.272483,5.82669323 183.773475,6.67330677 182.614021,8.36653386 L182.614021,8.36653386 L182.713403,5.82669323 L181.868657,5.82669323 L176.675959,7.27091633 L176.675959,7.96812749 L178.042459,8.81474104 L178.042459,17.5547809 C178.042459,17.936587 177.947218,18.185591 177.756736,18.3017928 C177.566255,18.4179947 177.197714,18.4926959 176.651114,18.5258964 L176.651114,18.5258964 L176.651114,19.497012 L183.881138,19.497012 Z M207.285548,19.7460159 C208.809402,19.7460159 210.055815,19.3393094 211.024787,18.5258964 C211.993759,17.7124834 212.652164,16.6002656 213,15.189243 L213,15.189243 L212.527937,14.8904382 C211.616937,16.1022576 210.382946,16.7081673 208.825965,16.7081673 C207.683075,16.7081673 206.751371,16.2724104 206.030853,15.4008964 C205.310335,14.5293825 204.958358,13.3632138 204.974921,11.9023904 L204.974921,11.9023904 L212.900618,11.9023904 L212.900618,11.2798805 C212.900618,9.63645418 212.432696,8.31673307 211.496851,7.32071713 C210.561005,6.3247012 209.215211,5.82669323 207.459466,5.82669323 C205.620903,5.82669323 204.05564,6.49900398 202.763677,7.8436255 C201.471714,9.18824701 200.825732,10.939575 200.825732,13.0976096 C200.825732,15.1394422 201.430304,16.7579681 202.639449,17.9531873 C203.848594,19.1484064 205.397294,19.7460159 207.285548,19.7460159 Z M208.975038,10.7569721 L204.999767,10.7569721 C205.132276,8.16733068 205.852794,6.87250996 207.16132,6.87250996 C208.370465,6.87250996 208.975038,8.16733068 208.975038,10.7569721 L208.975038,10.7569721 Z" id="resume" fill="#002D6B"></path>
            </g>
        </g>
    </g>
</svg>